<svg id="Layer_1" data-name="Layer 1" xmlns="http://www.w3.org/2000/svg" viewBox="0 0 900 900"><defs><style>.cls-1,.cls-3{fill:#fff;}.cls-1,.cls-2,.cls-3{stroke:#231f20;stroke-miterlimit:10;}.cls-1{stroke-width:8px;}.cls-2{fill:none;stroke-width:7.89px;}.cls-3{stroke-width:7.89px;}</style></defs><path class="cls-1" d="M483,260.51,486.21,283a171.71,171.71,0,0,0-72.5,0l3.24-22.4L450,31.8Z"/><path class="cls-1" d="M450,620.88A171.73,171.73,0,0,0,486.21,617L483,639.49,450,868.2,417,639.41,413.71,617A172,172,0,0,0,450,620.88Z"/><path class="cls-1" d="M868.2,450,639.41,483.05,617,486.29a171.71,171.71,0,0,0,0-72.5l22.4,3.23Z"/><path class="cls-2" d="M405.9,562.89,413.71,617A171.13,171.13,0,0,1,283,486.29l54.12,7.81A81.16,81.16,0,0,1,405.9,562.89Z"/><path class="cls-2" d="M413.71,283l-7.81,54.2A81.16,81.16,0,0,1,337.11,406L283,413.79A171,171,0,0,1,413.71,283Z"/><path class="cls-2" d="M562.81,494.1l54.2-7.81A170.89,170.89,0,0,1,486.21,617L494,562.89A81.16,81.16,0,0,1,562.81,494.1Z"/><path class="cls-2" d="M494,337.19,486.21,283A170.87,170.87,0,0,1,617,413.79L562.81,406A81.16,81.16,0,0,1,494,337.19Z"/><path class="cls-3" d="M639.41,417A192.2,192.2,0,0,0,483,260.51a188.6,188.6,0,0,0-33-2.84A181.88,181.88,0,0,0,417,260.59,192,192,0,0,0,260.59,417l22.4-3.23a170.86,170.86,0,1,1,0,72.5l-22.4-3.24A192.22,192.22,0,0,0,417,639.41,181.88,181.88,0,0,0,450,642.33a188.6,188.6,0,0,0,33-2.84A192.21,192.21,0,0,0,639.41,483.05a188.1,188.1,0,0,0,0-66Z"/><path class="cls-1" d="M620.88,450A172,172,0,0,1,617,486.29l-54.2,7.81A81.16,81.16,0,0,0,494,562.89L486.21,617a171.71,171.71,0,0,1-72.5,0l-7.81-54.12a81.16,81.16,0,0,0-68.79-68.79L283,486.29l-22.4-3.24L31.8,450l228.79-33,22.4-3.23L337.11,406a81.16,81.16,0,0,0,68.79-68.79l7.81-54.2a171.71,171.71,0,0,1,72.5,0l7.81,54.2A81.16,81.16,0,0,0,562.81,406l54.2,7.81A171.23,171.23,0,0,1,620.88,450Z"/></svg>